PathFileType	4	(X/Y/Z)	Walk5.trc
DataRate	CameraRate	NumFrames	NumMarkers	Units	OrigDataRate	OrigDataStartFrame	OrigNumFrames
200.000000	200.000000	6	59	mm	200.000000	303	534
Frame#	Times		LBHD		C7		T10		RBack		LPSI		RPSI		RCAR		LElbowM		RElbowM		LUA1		RBHD		RFA1		LLFC		LCAR		RWRR		RFHD		LACR1		RTH3		CLAV		LWRR		RUA1		RTH2		RACR1		LWRU		RTB4		RTH4		RTB3		RToe		RMT1		RWRU		LFA1		RCAL		RMT5		LTH4		LTH1		RElbow		RLFC		RTB1		RTB2		STRN		LElbow		LFHD		LTH2		LTH3		RMMAL		RLMAL		LTB3		LTB2		RASI		LCAL		LMT1		LASI		LLMAL		LTB1		LMT5		RTH1		LTB4		LToe		LMMAL
			X1	Y1	Z1	X2	Y2	Z2	X3	Y3	Z3	X4	Y4	Z4	X5	Y5	Z5	X6	Y6	Z6	X7	Y7	Z7	X8	Y8	Z8	X9	Y9	Z9	X10	Y10	Z10	X11	Y11	Z11	X12	Y12	Z12	X13	Y13	Z13	X14	Y14	Z14	X15	Y15	Z15	X16	Y16	Z16	X17	Y17	Z17	X18	Y18	Z18	X19	Y19	Z19	X20	Y20	Z20	X21	Y21	Z21	X22	Y22	Z22	X23	Y23	Z23	X24	Y24	Z24	X25	Y25	Z25	X26	Y26	Z26	X27	Y27	Z27	X28	Y28	Z28	X29	Y29	Z29	X30	Y30	Z30	X31	Y31	Z31	X32	Y32	Z32	X33	Y33	Z33	X34	Y34	Z34	X35	Y35	Z35	X36	Y36	Z36	X37	Y37	Z37	X38	Y38	Z38	X39	Y39	Z39	X40	Y40	Z40	X41	Y41	Z41	X42	Y42	Z42	X43	Y43	Z43	X44	Y44	Z44	X45	Y45	Z45	X46	Y46	Z46	X47	Y47	Z47	X48	Y48	Z48	X49	Y49	Z49	X50	Y50	Z50	X51	Y51	Z51	X52	Y52	Z52	X53	Y53	Z53	X54	Y54	Z54	X55	Y55	Z55	X56	Y56	Z56	X57	Y57	Z57	X58	Y58	Z58	X59	Y59	Z59

303	1.515	-312.58	1493.5	-122.99	-346.51	1358.6	-59.265	-381.91	1090	-58.25	-387.67	1263	67.376	-410.61	905.55	-81.4	-415.75	903.6	18.312	-314.09	753.59	295.79	-297.38	960.9	-254.1	-384.15	974.41	145.57	-236.19	1116.6	-293.82	-318.12	1500.3	0.14757	-366.48	888.76	248.43	-320.91	450.24	-155.6	-95.161	745.66	-324.42	-277.52	782.58	250.86	-137.69	1495.5	-17.95	-251.44	1290.3	-212.54	-166.37	566.69	135.75	-224.29	1277.4	-39.702	-109.05	783.63	-275.48	-310.67	1150	188.34	-136.68	688.01	130.94	-291	1299.2	103.08	-151.14	775.04	-335.53	-102.85	262.53	52.028	-201.92	653.86	156.43	-105.23	169.24	50.161	1.7668	57.435	81.012	-47.332	74.732	55.092	-351.86	779.63	253.35	-209.28	882.1	-332	-206.12	60.82	50.531	-77.532	56.621	99.899	-260.58	645.45	-188.56	-250.99	735.44	-216.67	-355.01	1014.1	228.34	-118.44	479.91	125.61	-85.961	352.7	50.866	-137.2	264.68	115.65	-163.72	1171.6	-34.333	-263.68	997.92	-316.06	-141.15	1487.1	-94.306	-203.02	653.33	-144.1	-275.98	554.88	-164.04	-134.72	95.29	10.983	-153	87.388	89.319	-352.01	159.39	-53.744	-358.54	248.53	-132.4	-198.11	874.81	117.83	-462.85	36.165	-56.347	-308.64	49.556	-37.358	-250.44	847.28	-184.69	-412.23	66.74	-95.942	-310.47	336.45	-70.337	-328.37	32.834	-94.583	-232.72	735.19	178.62	-339.35	249.2	-64.373	-250.51	25.327	-41.625	-398.98	73.249	-16.619
304	1.52	-306.7	1492.6	-122.63	-340.65	1357.8	-59.001	-376.28	1089.1	-57.974	-381.88	1262.1	67.51	-405.33	904.97	-80.646	-409.96	902.65	18.989	-310.94	752.66	296.08	-290.68	959.77	-254.07	-379.71	973.77	145.69	-229.91	1115.7	-293.54	-312.24	1499.3	0.51156	-362.55	888.08	248.56	-317.45	449.67	-155.46	-87.25	745.5	-323.59	-274.11	781.55	251.31	-131.81	1494.6	-17.614	-245.65	1289.4	-212.34	-160.28	565.56	135.14	-218.53	1276.3	-39.494	-101.47	783.43	-274.74	-305.49	1149	188.5	-130.59	686.88	130.24	-285.19	1298.2	103.32	-143.34	774.6	-334.89	-90.716	262.18	51.396	-195.68	652.73	156.08	-90.146	168.86	49.75	20.459	59.582	79.768	-29.293	75.665	54.201	-348.47	778.88	253.46	-201.97	881.38	-331.61	-187.66	57.537	50.758	-58.727	56.872	99.224	-256.29	644.63	-188.52	-246.36	734.55	-216.64	-350.39	1013.3	228.47	-112.06	478.98	124.74	-76.711	352.82	50.046	-124.88	263.41	115.14	-158.04	1170.5	-34.2	-256.95	996.97	-315.93	-135.26	1486.2	-93.961	-198.64	652.28	-144.1	-272.04	554.12	-163.93	-117.53	93.898	10.645	-135.11	85.577	89.143	-350.94	159	-53.497	-356.61	248.18	-132.19	-192.12	873.8	118.38	-462.78	36.532	-56.187	-308.52	49.499	-37.208	-238.02	847.15	-184.54	-411.93	66.9	-95.767	-307.82	335.69	-70.105	-328.36	32.851	-94.46	-226.34	734.04	178.53	-337.6	248.72	-64.086	-250.29	25.385	-41.706	-398.7	73.279	-16.408
305	1.525	-300.83	1491.6	-122.26	-334.79	1356.9	-58.723	-370.63	1088.3	-57.678	-376.08	1261.2	67.661	-400.02	904.35	-79.87	-404.12	901.68	19.684	-307.69	751.71	296.34	-283.99	958.63	-254.03	-375.25	973.13	145.81	-223.62	1114.8	-293.25	-306.36	1498.3	0.88605	-358.56	887.39	248.69	-313.99	449.1	-155.33	-79.373	745.32	-322.76	-270.65	780.52	251.7	-125.92	1493.6	-17.273	-239.85	1288.5	-212.13	-154.32	564.33	134.57	-212.76	1275.3	-39.279	-93.911	783.2	-273.99	-300.28	1148.1	188.67	-124.56	685.64	129.61	-279.36	1297.1	103.57	-135.55	774.14	-334.25	-78.752	261.92	50.732	-189.53	651.52	155.77	-75.237	168.66	49.275	38.939	61.978	78.301	-11.459	76.838	53.146	-345.01	778.12	253.58	-194.66	880.64	-331.22	-169.29	54.544	50.991	-40.066	57.405	98.414	-251.98	643.8	-188.46	-241.69	733.64	-216.61	-345.73	1012.6	228.61	-105.82	477.96	123.93	-67.641	352.94	49.203	-112.65	262.26	114.62	-152.35	1169.4	-34.069	-250.19	996.01	-315.78	-129.39	1485.3	-93.611	-194.25	651.22	-144.08	-268.1	553.34	-163.81	-100.52	92.748	10.262	-117.3	84.038	88.91	-349.86	158.62	-53.254	-354.67	247.84	-131.97	-186.09	872.78	118.98	-462.72	36.936	-56.011	-308.4	49.445	-37.055	-225.68	847.03	-184.39	-411.63	67.083	-95.582	-305.15	334.92	-69.881	-328.34	32.87	-94.332	-220	732.82	178.45	-335.82	248.25	-63.798	-250.09	25.438	-41.774	-398.41	73.336	-16.188
306	1.53	-294.97	1490.6	-121.87	-328.94	1355.9	-58.431	-364.97	1087.4	-57.365	-370.26	1260.3	67.832	-394.68	903.7	-79.075	-398.24	900.68	20.398	-304.35	750.74	296.57	-277.29	957.49	-253.97	-370.76	972.47	145.95	-217.31	1113.8	-292.93	-300.48	1497.3	1.2714	-354.52	886.69	248.82	-310.52	448.53	-155.19	-71.528	745.1	-321.92	-267.13	779.47	252.03	-120.04	1492.7	-16.928	-234.05	1287.6	-211.9	-148.49	563.01	134.06	-206.99	1274.2	-39.055	-86.391	782.94	-273.22	-295.03	1147.1	188.85	-118.6	684.28	129.05	-273.52	1296	103.83	-127.79	773.67	-333.6	-66.974	261.75	50.032	-183.47	650.23	155.5	-60.533	168.64	48.733	57.173	64.613	76.592	6.1322	78.242	51.918	-341.49	777.36	253.69	-187.36	879.9	-330.81	-151.05	51.845	51.24	-21.579	58.216	97.457	-247.65	642.96	-188.4	-237	732.71	-216.57	-341.05	1011.8	228.76	-99.718	476.84	123.17	-58.756	353.06	48.33	-100.51	261.21	114.1	-146.64	1168.3	-33.939	-243.42	995.05	-315.62	-123.52	1484.3	-93.257	-189.85	650.13	-144.05	-264.15	552.56	-163.68	-83.748	91.838	9.8356	-99.613	82.776	88.621	-348.76	158.25	-53.016	-352.74	247.5	-131.75	-180	871.75	119.64	-462.64	37.382	-55.817	-308.27	49.396	-36.901	-213.43	846.91	-184.23	-411.33	67.289	-95.384	-302.45	334.14	-69.665	-328.33	32.894	-94.197	-213.72	731.55	178.4	-334.03	247.79	-63.512	-249.89	25.483	-41.83	-398.12	73.423	-15.956
307	1.535	-289.12	1489.6	-121.48	-323.11	1355	-58.123	-359.29	1086.5	-57.035	-364.43	1259.3	68.024	-389.29	903.01	-78.261	-392.32	899.65	21.131	-300.91	749.77	296.77	-270.59	956.34	-253.9	-366.24	971.81	146.09	-210.98	1112.9	-292.59	-294.61	1496.2	1.6679	-350.43	885.97	248.96	-307.04	447.95	-155.05	-63.718	744.86	-321.08	-263.55	778.42	252.32	-114.16	1491.7	-16.576	-228.26	1286.6	-211.66	-142.79	561.61	133.61	-201.22	1273.1	-38.822	-78.902	782.64	-272.43	-289.75	1146.2	189.04	-112.69	682.83	128.55	-267.67	1294.9	104.09	-120.06	773.19	-332.94	-55.398	261.68	49.294	-177.49	648.88	155.26	-46.063	168.79	48.119	75.123	67.473	74.626	23.445	79.862	50.509	-337.89	776.58	253.81	-180.07	879.15	-330.38	-132.99	49.438	51.514	-3.3028	59.293	96.348	-243.31	642.11	-188.33	-232.28	731.78	-216.52	-336.34	1011.1	228.92	-93.735	475.64	122.47	-50.058	353.17	47.424	-88.46	260.28	113.57	-140.92	1167.2	-33.81	-236.65	994.08	-315.45	-117.65	1483.4	-92.897	-185.43	649.03	-144.01	-260.19	551.77	-163.54	-67.238	91.161	9.3683	-82.078	81.789	88.276	-347.65	157.9	-52.784	-350.81	247.18	-131.52	-173.85	870.71	120.34	-462.57	37.873	-55.602	-308.14	49.353	-36.744	-201.3	846.8	-184.07	-411.03	67.52	-95.172	-299.74	333.37	-69.459	-328.32	32.923	-94.056	-207.48	730.23	178.37	-332.21	247.34	-63.229	-249.71	25.521	-41.873	-397.83	73.543	-15.71
308	1.54	-283.27	1488.5	-121.08	-317.28	1354	-57.799	-353.59	1085.5	-56.688	-358.59	1258.3	68.236	-383.86	902.28	-77.431	-386.34	898.6	21.884	-297.38	748.77	296.93	-263.9	955.19	-253.81	-361.69	971.13	146.23	-204.63	1111.9	-292.23	-288.74	1495.2	2.0761	-346.29	885.24	249.11	-303.56	447.38	-154.91	-55.944	744.6	-320.23	-259.9	777.36	252.55	-108.29	1490.6	-16.217	-222.46	1285.7	-211.41	-137.21	560.14	133.22	-195.44	1272	-38.58	-71.442	782.31	-271.63	-284.45	1145.2	189.26	-106.84	681.29	128.1	-261.81	1293.8	104.36	-112.36	772.69	-332.29	-44.039	261.68	48.516	-171.59	647.47	155.07	-31.853	169.1	47.431	92.748	70.535	72.397	40.439	81.677	48.919	-334.22	775.79	253.93	-172.79	878.39	-329.95	-115.14	47.319	51.819	14.723	60.622	95.084	-238.96	641.26	-188.25	-227.55	730.84	-216.47	-331.6	1010.3	229.09	-87.864	474.37	121.83	-41.549	353.29	46.478	-76.516	259.47	113.03	-135.18	1166.1	-33.681	-229.86	993.1	-315.25	-111.8	1482.3	-92.529	-181	647.92	-143.97	-256.23	550.97	-163.4	-51.036	90.703	8.8647	-64.732	81.074	87.877	-346.52	157.58	-52.555	-348.89	246.87	-131.29	-167.64	869.67	121.06	-462.49	38.414	-55.364	-308	49.316	-36.585	-189.29	846.69	-183.9	-410.73	67.778	-94.942	-297	332.59	-69.262	-328.31	32.957	-93.908	-201.29	728.88	178.35	-330.36	246.91	-62.951	-249.53	25.551	-41.904	-397.52	73.698	-15.446
